<svg width="24" height="24" viewBox="0 0 24 24" fill="none" xmlns="http://www.w3.org/2000/svg">
<path d="M12.353 5.64616L12.3533 5.64651L16.3497 9.64292C16.4392 9.73694 16.4887 9.86212 16.4876 9.99202C16.4864 10.1231 16.4339 10.2485 16.3411 10.3412C16.2484 10.4339 16.123 10.4865 15.9919 10.4877C15.862 10.4888 15.7369 10.4393 15.6428 10.3498L13.3534 8.06041L12.4999 7.20685V8.41396V18C12.4999 18.1326 12.4472 18.2597 12.3534 18.3535C12.2597 18.4473 12.1325 18.5 11.9999 18.5C11.8673 18.5 11.7401 18.4473 11.6463 18.3535C11.5526 18.2597 11.4999 18.1326 11.4999 18V8.41396V7.2076L10.6465 8.06025L8.35148 10.3533L8.35143 10.3532L8.34524 10.3596C8.29912 10.4074 8.24394 10.4455 8.18294 10.4717C8.12194 10.4979 8.05633 10.5117 7.98994 10.5122C7.92355 10.5128 7.85771 10.5002 7.79626 10.475C7.73481 10.4499 7.67899 10.4127 7.63204 10.3658C7.5851 10.3189 7.54797 10.263 7.52283 10.2016C7.49769 10.1401 7.48504 10.0743 7.48561 10.0079C7.48619 9.94151 7.49998 9.8759 7.52619 9.8149C7.55239 9.7539 7.59048 9.69873 7.63824 9.6526L7.63829 9.65266L7.64444 9.64651L11.6444 5.64651L11.6448 5.64616C11.6909 5.59997 11.7457 5.56346 11.8061 5.53876L11.8061 5.53876L11.8079 5.53804C11.9302 5.48748 12.0676 5.48748 12.1899 5.53804L12.1899 5.53804L12.1916 5.53876C12.252 5.56346 12.3069 5.59997 12.353 5.64616Z" fill="white" stroke="white"/>
</svg>
